<svg id="visual" viewBox="0 0 900 600" width="900" height="600" xmlns="http://www.w3.org/2000/svg" xmlns:xlink="http://www.w3.org/1999/xlink" version="1.1"><path d="M0 425L11.5 425.3C23 425.7 46 426.3 69 429.7C92 433 115 439 138.2 440C161.3 441 184.7 437 207.8 439.7C231 442.3 254 451.7 277 451.7C300 451.7 323 442.3 346 433C369 423.7 392 414.3 415.2 419.8C438.3 425.3 461.7 445.7 484.8 449.2C508 452.7 531 439.3 554 435.7C577 432 600 438 623 441.8C646 445.7 669 447.3 692.2 447C715.3 446.7 738.7 444.3 761.8 441.3C785 438.3 808 434.7 831 432.2C854 429.7 877 428.3 888.5 427.7L900 427L900 601L888.5 601C877 601 854 601 831 601C808 601 785 601 761.8 601C738.7 601 715.3 601 692.2 601C669 601 646 601 623 601C600 601 577 601 554 601C531 601 508 601 484.8 601C461.7 601 438.3 601 415.2 601C392 601 369 601 346 601C323 601 300 601 277 601C254 601 231 601 207.8 601C184.7 601 161.3 601 138.2 601C115 601 92 601 69 601C46 601 23 601 11.5 601L0 601Z" fill="#ff0066"></path><path d="M0 485L11.5 486.2C23 487.3 46 489.7 69 493C92 496.3 115 500.7 138.2 494.2C161.3 487.7 184.7 470.3 207.8 461C231 451.7 254 450.3 277 450.8C300 451.3 323 453.7 346 456.7C369 459.7 392 463.3 415.2 464C438.3 464.7 461.7 462.3 484.8 459.8C508 457.3 531 454.7 554 458.3C577 462 600 472 623 470.3C646 468.7 669 455.3 692.2 449.3C715.3 443.3 738.7 444.7 761.8 450.8C785 457 808 468 831 468.2C854 468.3 877 457.7 888.5 452.3L900 447L900 601L888.5 601C877 601 854 601 831 601C808 601 785 601 761.8 601C738.7 601 715.3 601 692.2 601C669 601 646 601 623 601C600 601 577 601 554 601C531 601 508 601 484.8 601C461.7 601 438.3 601 415.2 601C392 601 369 601 346 601C323 601 300 601 277 601C254 601 231 601 207.8 601C184.7 601 161.3 601 138.2 601C115 601 92 601 69 601C46 601 23 601 11.5 601L0 601Z" fill="#ff3c61"></path><path d="M0 531L11.5 533C23 535 46 539 69 531.7C92 524.3 115 505.7 138.2 501.8C161.3 498 184.7 509 207.8 511.2C231 513.3 254 506.7 277 503.3C300 500 323 500 346 501C369 502 392 504 415.2 508.5C438.3 513 461.7 520 484.8 521.2C508 522.3 531 517.7 554 512.5C577 507.3 600 501.7 623 501.5C646 501.3 669 506.7 692.2 507.3C715.3 508 738.7 504 761.8 508C785 512 808 524 831 527.2C854 530.3 877 524.7 888.5 521.8L900 519L900 601L888.5 601C877 601 854 601 831 601C808 601 785 601 761.8 601C738.7 601 715.3 601 692.2 601C669 601 646 601 623 601C600 601 577 601 554 601C531 601 508 601 484.8 601C461.7 601 438.3 601 415.2 601C392 601 369 601 346 601C323 601 300 601 277 601C254 601 231 601 207.8 601C184.7 601 161.3 601 138.2 601C115 601 92 601 69 601C46 601 23 601 11.5 601L0 601Z" fill="#ff5860"></path><path d="M0 571L11.5 563.2C23 555.3 46 539.7 69 534.2C92 528.7 115 533.3 138.2 541.3C161.3 549.3 184.7 560.7 207.8 563C231 565.3 254 558.7 277 550.8C300 543 323 534 346 531.8C369 529.7 392 534.3 415.2 541.8C438.3 549.3 461.7 559.7 484.8 562C508 564.3 531 558.7 554 551.5C577 544.3 600 535.7 623 532.2C646 528.7 669 530.3 692.2 530.2C715.3 530 738.7 528 761.8 529.3C785 530.7 808 535.3 831 536.7C854 538 877 536 888.5 535L900 534L900 601L888.5 601C877 601 854 601 831 601C808 601 785 601 761.8 601C738.7 601 715.3 601 692.2 601C669 601 646 601 623 601C600 601 577 601 554 601C531 601 508 601 484.8 601C461.7 601 438.3 601 415.2 601C392 601 369 601 346 601C323 601 300 601 277 601C254 601 231 601 207.8 601C184.7 601 161.3 601 138.2 601C115 601 92 601 69 601C46 601 23 601 11.5 601L0 601Z" fill="#ff6f61"></path></svg>