<svg id="visual" viewBox="0 0 900 600" width="900" height="600" xmlns="http://www.w3.org/2000/svg" xmlns:xlink="http://www.w3.org/1999/xlink" version="1.1"><path d="M0 427L21.5 422.2C43 417.3 86 407.7 128.8 397.8C171.7 388 214.3 378 257.2 374.8C300 371.7 343 375.3 385.8 381.2C428.7 387 471.3 395 514.2 401.8C557 408.7 600 414.3 642.8 418.3C685.7 422.3 728.3 424.7 771.2 417C814 409.3 857 391.7 878.5 382.8L900 374L900 601L878.5 601C857 601 814 601 771.2 601C728.3 601 685.7 601 642.8 601C600 601 557 601 514.2 601C471.3 601 428.7 601 385.8 601C343 601 300 601 257.2 601C214.3 601 171.7 601 128.8 601C86 601 43 601 21.5 601L0 601Z" fill="#6db7fc"></path><path d="M0 444L21.5 445.2C43 446.3 86 448.7 128.8 454.3C171.7 460 214.3 469 257.2 471.7C300 474.3 343 470.7 385.8 464.5C428.7 458.3 471.3 449.7 514.2 438.5C557 427.3 600 413.7 642.8 413.8C685.7 414 728.3 428 771.2 440.8C814 453.7 857 465.3 878.5 471.2L900 477L900 601L878.5 601C857 601 814 601 771.2 601C728.3 601 685.7 601 642.8 601C600 601 557 601 514.2 601C471.3 601 428.7 601 385.8 601C343 601 300 601 257.2 601C214.3 601 171.7 601 128.8 601C86 601 43 601 21.5 601L0 601Z" fill="#49a5fe"></path><path d="M0 458L21.5 457.8C43 457.7 86 457.3 128.8 455C171.7 452.7 214.3 448.3 257.2 454.5C300 460.7 343 477.3 385.8 484.3C428.7 491.3 471.3 488.7 514.2 480.3C557 472 600 458 642.8 460.5C685.7 463 728.3 482 771.2 480.8C814 479.7 857 458.3 878.5 447.7L900 437L900 601L878.5 601C857 601 814 601 771.2 601C728.3 601 685.7 601 642.8 601C600 601 557 601 514.2 601C471.3 601 428.7 601 385.8 601C343 601 300 601 257.2 601C214.3 601 171.7 601 128.8 601C86 601 43 601 21.5 601L0 601Z" fill="#1e92ff"></path><path d="M0 535L21.5 529.7C43 524.3 86 513.7 128.8 506.8C171.7 500 214.3 497 257.2 497.2C300 497.3 343 500.7 385.8 506.8C428.7 513 471.3 522 514.2 520.7C557 519.3 600 507.7 642.8 499.3C685.7 491 728.3 486 771.2 489.5C814 493 857 505 878.5 511L900 517L900 601L878.5 601C857 601 814 601 771.2 601C728.3 601 685.7 601 642.8 601C600 601 557 601 514.2 601C471.3 601 428.7 601 385.8 601C343 601 300 601 257.2 601C214.3 601 171.7 601 128.8 601C86 601 43 601 21.5 601L0 601Z" fill="#007dff"></path><path d="M0 562L21.5 558.8C43 555.7 86 549.3 128.8 547.8C171.7 546.3 214.3 549.7 257.2 548.2C300 546.7 343 540.3 385.8 538.5C428.7 536.7 471.3 539.3 514.2 541C557 542.7 600 543.3 642.8 547.8C685.7 552.3 728.3 560.7 771.2 560.2C814 559.7 857 550.3 878.5 545.7L900 541L900 601L878.5 601C857 601 814 601 771.2 601C728.3 601 685.7 601 642.8 601C600 601 557 601 514.2 601C471.3 601 428.7 601 385.8 601C343 601 300 601 257.2 601C214.3 601 171.7 601 128.8 601C86 601 43 601 21.5 601L0 601Z" fill="#0066ff"></path></svg>