<svg id="visual" viewBox="0 0 900 600" width="900" height="600" xmlns="http://www.w3.org/2000/svg" xmlns:xlink="http://www.w3.org/1999/xlink" version="1.1"><path d="M0 390L11.5 396.8C23 403.7 46 417.3 69 419C92 420.7 115 410.3 138.2 412.5C161.3 414.7 184.7 429.3 207.8 437.7C231 446 254 448 277 440C300 432 323 414 346 412.8C369 411.7 392 427.3 415.2 429.7C438.3 432 461.7 421 484.8 418.8C508 416.7 531 423.3 554 424.5C577 425.7 600 421.3 623 424.8C646 428.3 669 439.7 692.2 441C715.3 442.3 738.7 433.7 761.8 424C785 414.3 808 403.7 831 409.2C854 414.7 877 436.3 888.5 447.2L900 458L900 601L888.5 601C877 601 854 601 831 601C808 601 785 601 761.8 601C738.7 601 715.3 601 692.2 601C669 601 646 601 623 601C600 601 577 601 554 601C531 601 508 601 484.8 601C461.7 601 438.3 601 415.2 601C392 601 369 601 346 601C323 601 300 601 277 601C254 601 231 601 207.8 601C184.7 601 161.3 601 138.2 601C115 601 92 601 69 601C46 601 23 601 11.5 601L0 601Z" fill="#009473"></path><path d="M0 436L11.5 444.8C23 453.7 46 471.3 69 471.3C92 471.3 115 453.7 138.2 454C161.3 454.3 184.7 472.7 207.8 472C231 471.3 254 451.7 277 445C300 438.3 323 444.7 346 450.3C369 456 392 461 415.2 466.2C438.3 471.3 461.7 476.7 484.8 479C508 481.3 531 480.7 554 477.3C577 474 600 468 623 467.3C646 466.7 669 471.3 692.2 472.3C715.3 473.3 738.7 470.7 761.8 462.8C785 455 808 442 831 436.3C854 430.7 877 432.3 888.5 433.2L900 434L900 601L888.5 601C877 601 854 601 831 601C808 601 785 601 761.8 601C738.7 601 715.3 601 692.2 601C669 601 646 601 623 601C600 601 577 601 554 601C531 601 508 601 484.8 601C461.7 601 438.3 601 415.2 601C392 601 369 601 346 601C323 601 300 601 277 601C254 601 231 601 207.8 601C184.7 601 161.3 601 138.2 601C115 601 92 601 69 601C46 601 23 601 11.5 601L0 601Z" fill="#008668"></path><path d="M0 482L11.5 483.5C23 485 46 488 69 493C92 498 115 505 138.2 505.7C161.3 506.3 184.7 500.7 207.8 502.3C231 504 254 513 277 513.3C300 513.7 323 505.3 346 504C369 502.7 392 508.3 415.2 502.3C438.3 496.3 461.7 478.7 484.8 480C508 481.3 531 501.7 554 502C577 502.3 600 482.7 623 473.5C646 464.3 669 465.7 692.2 472.3C715.3 479 738.7 491 761.8 490.2C785 489.3 808 475.7 831 477.5C854 479.3 877 496.7 888.5 505.3L900 514L900 601L888.5 601C877 601 854 601 831 601C808 601 785 601 761.8 601C738.7 601 715.3 601 692.2 601C669 601 646 601 623 601C600 601 577 601 554 601C531 601 508 601 484.8 601C461.7 601 438.3 601 415.2 601C392 601 369 601 346 601C323 601 300 601 277 601C254 601 231 601 207.8 601C184.7 601 161.3 601 138.2 601C115 601 92 601 69 601C46 601 23 601 11.5 601L0 601Z" fill="#00785e"></path><path d="M0 509L11.5 507.3C23 505.7 46 502.3 69 504.7C92 507 115 515 138.2 522.7C161.3 530.3 184.7 537.7 207.8 540.2C231 542.7 254 540.3 277 534.3C300 528.3 323 518.7 346 519.8C369 521 392 533 415.2 532.3C438.3 531.7 461.7 518.3 484.8 518.3C508 518.3 531 531.7 554 533.7C577 535.7 600 526.3 623 524C646 521.7 669 526.3 692.2 529.2C715.3 532 738.7 533 761.8 532.5C785 532 808 530 831 529.5C854 529 877 530 888.5 530.5L900 531L900 601L888.5 601C877 601 854 601 831 601C808 601 785 601 761.8 601C738.7 601 715.3 601 692.2 601C669 601 646 601 623 601C600 601 577 601 554 601C531 601 508 601 484.8 601C461.7 601 438.3 601 415.2 601C392 601 369 601 346 601C323 601 300 601 277 601C254 601 231 601 207.8 601C184.7 601 161.3 601 138.2 601C115 601 92 601 69 601C46 601 23 601 11.5 601L0 601Z" fill="#006a53"></path><path d="M0 540L11.5 539.7C23 539.3 46 538.7 69 539.3C92 540 115 542 138.2 543.3C161.3 544.7 184.7 545.3 207.8 547C231 548.7 254 551.3 277 551.3C300 551.3 323 548.7 346 549.5C369 550.3 392 554.7 415.2 558.7C438.3 562.7 461.7 566.3 484.8 569.2C508 572 531 574 554 571.7C577 569.3 600 562.7 623 557.2C646 551.7 669 547.3 692.2 550.8C715.3 554.3 738.7 565.7 761.8 571.8C785 578 808 579 831 579C854 579 877 578 888.5 577.5L900 577L900 601L888.5 601C877 601 854 601 831 601C808 601 785 601 761.8 601C738.7 601 715.3 601 692.2 601C669 601 646 601 623 601C600 601 577 601 554 601C531 601 508 601 484.8 601C461.7 601 438.3 601 415.2 601C392 601 369 601 346 601C323 601 300 601 277 601C254 601 231 601 207.8 601C184.7 601 161.3 601 138.2 601C115 601 92 601 69 601C46 601 23 601 11.5 601L0 601Z" fill="#005d49"></path></svg>